<?xml version="1.0" encoding="utf-8"?>
<!-- Generator: Adobe Illustrator 27.7.0, SVG Export Plug-In . SVG Version: 6.00 Build 0)  -->
<svg version="1.1" id="_圖層_1" xmlns="http://www.w3.org/2000/svg" xmlns:xlink="http://www.w3.org/1999/xlink" x="0px" y="0px"
	 width="150px" height="30px" viewBox="0 0 150 30" style="enable-background:new 0 0 150 30;" xml:space="preserve">
<style type="text/css">
	.st0{fill:none;}
	.st1{fill:#FFFFFF;}
</style>
<rect class="st0" width="150" height="30"/>
<rect x="8.9" y="1.2" class="st0" width="27.8" height="27.8"/>
<g>
	<g>
		<path class="st1" d="M49.8,13.8c2.2,0,3.5,0.8,3.5,2.5c0,1.9-1.1,3-3.9,3h-8.6l1.8-2.4h7c0.7,0,1-0.2,1-0.7s-0.3-0.7-1-0.7h-5
			c-2.4,0-3.5-1.1-3.5-2.6c0-1.7,1.2-2.9,3.9-2.9h8l-1.8,2.4h-6.4c-0.7,0-1,0.2-1,0.6c0,0.5,0.3,0.6,1,0.6
			C44.8,13.8,49.8,13.8,49.8,13.8z"/>
		<path class="st1" d="M57.8,19.3l1.7-2.4h2.3c0.6,0,1.2,0,1.6,0c-0.2-0.3-0.6-0.9-0.9-1.3l-1.7-2.4l-4.3,6.1h-3.4L59,11
			c0.4-0.5,0.9-1,1.8-1c0.9,0,1.4,0.4,1.8,1l5.7,8.3H57.8L57.8,19.3z"/>
		<path class="st1" d="M81.3,16.6c0,1.5-0.8,2.7-3.7,2.7h-8.1v-5.6h8.1c0.4,0,0.8-0.1,0.8-0.6s-0.4-0.6-0.8-0.6h-8.1l1.9-2.4h6.1
			c2.2,0,3.6,0.9,3.6,2.5c0,1.1-0.6,1.7-1.2,1.9C80.7,14.8,81.3,15.5,81.3,16.6L81.3,16.6z M72.3,15.7V17h5.2c0.6,0,0.9-0.2,0.9-0.6
			c0-0.4-0.3-0.6-0.9-0.6C77.6,15.7,72.3,15.7,72.3,15.7z"/>
		<path class="st1" d="M85.8,19.3l1.7-2.4h2.3c0.6,0,1.2,0,1.6,0c-0.2-0.3-0.6-0.9-0.9-1.3l-1.7-2.4l-4.3,6.1h-3.4l5.9-8.3
			c0.4-0.5,0.9-1,1.8-1s1.4,0.4,1.8,1l5.7,8.3H85.8L85.8,19.3z"/>
		<path class="st1" d="M115.9,14.7c0,3.3-2.2,4.8-6.7,4.8c-4.5,0-6.7-1.5-6.7-4.8s2.2-4.7,6.7-4.7C113.7,10,115.9,11.4,115.9,14.7z
			 M113.1,14.7c0-2-1-2.3-3.9-2.3s-3.9,0.4-3.9,2.3s1,2.4,3.9,2.4S113.1,16.7,113.1,14.7z"/>
		<path class="st1" d="M130.4,19.3h-3.8l-2-2.4h-4.4v2.4h-2.8v-4.7h8c0.9,0,1.6-0.4,1.6-1c0-0.7-0.6-1.1-1.6-1.1h-8l1.9-2.4h5.9
			c2.1,0,4.7,0.7,4.7,3.3c0,1.4-0.9,2.6-2.4,2.9c0.3,0.2,0.7,0.6,1.3,1.2C128.8,17.5,130.4,19.3,130.4,19.3z"/>
		<path class="st1" d="M143.3,16.6c0,1.5-0.8,2.7-3.7,2.7h-8.1v-5.6h8.1c0.4,0,0.8-0.1,0.8-0.6s-0.4-0.6-0.8-0.6h-8.1l1.9-2.4h6.1
			c2.2,0,3.6,0.9,3.6,2.5c0,1.1-0.6,1.7-1.2,1.9C142.6,14.8,143.3,15.5,143.3,16.6L143.3,16.6z M134.3,15.7V17h5.2
			c0.6,0,0.9-0.2,0.9-0.6c0-0.4-0.3-0.6-0.9-0.6C139.6,15.7,134.3,15.7,134.3,15.7z"/>
	</g>
	<g>
		<path class="st1" d="M19.1,24.8c-6-0.2-8.4,3.6-8.4,3.6s2.9-1.8,8.5-1.8c4.8,0,7.9,2.1,7.9,2.1S25.1,25,19.1,24.8L19.1,24.8z"/>
		<g>
			<path class="st1" d="M18.8,1.3c-6.7,0-12,5.4-12,12c0,4.4,2.1,7.7,5,9.9c1.3-0.9,4.3-2.5,7.4-2.4c2.7,0.1,5.5,1.5,6.8,2.3
				c3.2-2.5,5-5.4,5-9.8C30.8,6.7,25.5,1.3,18.8,1.3z M27.4,10.8L27.4,10.8l-0.2-0.3l0.3,0.2c0.1,0,0.2,0,0.3,0l0.2-0.1l-0.1,0.3
				c0,0.1,0,0.2,0,0.3l0.1,0.3l-0.3-0.2c-0.1,0-0.2-0.1-0.3,0l-0.3,0.2l0.2-0.3C27.5,11,27.5,10.9,27.4,10.8z M21.1,13.8l2.6-4.7
				l3.6,6.4h-1.4l-1.6-2.8L21.1,13.8z M23.9,14.1l-0.3,0.1c-0.1,0-0.2,0.1-0.2,0.2l-0.1,0.3l-0.1-0.3c0-0.1-0.1-0.1-0.2-0.2
				l-0.3-0.1l0.3-0.1c0.1,0,0.2-0.1,0.2-0.2l0.1-0.3l0.1,0.3c0,0.1,0.1,0.2,0.2,0.2L23.9,14.1z M21.5,16.7l-0.4-0.6
				c-0.1-0.2-0.3-0.3-0.5-0.3l-0.8,0.1l0.6-0.4c0.2-0.1,0.3-0.3,0.3-0.6l-0.1-0.8l0.5,0.6c0.1,0.2,0.4,0.3,0.6,0.3l0.6-0.1l-0.6,0.4
				c-0.2,0.1-0.3,0.3-0.3,0.6L21.5,16.7z M21.5,4.3L21.5,4.3c0.1,0,0.2-0.1,0.2-0.2l0.1-0.3L22,4.1c0,0.1,0.1,0.2,0.2,0.2l0.3,0.1
				l-0.3,0.1c-0.1,0-0.2,0.1-0.2,0.2L21.9,5l-0.1-0.3c0-0.1-0.1-0.2-0.2-0.2l-0.3-0.1L21.5,4.3z M23.3,4.6L23.3,4.6l3.1,5.5h-1.4
				l-1.4-2.5l-2.5,0.8L23.3,4.6z M20.5,9.9c0.2-0.1,0.2-0.3,0.2-0.5l0-0.6l0.4,0.5c0.1,0.1,0.3,0.2,0.5,0.2l0.5-0.1l-0.5,0.3
				c-0.1,0.1-0.2,0.3-0.2,0.5l0,0.6l-0.3-0.5c-0.1-0.1-0.3-0.2-0.4-0.2l-0.6,0L20.5,9.9L20.5,9.9z M19.6,12.6c0,0,0.4,0.3,0.4,1.1
				c0,1.6-1.5,1.8-1.5,1.8h-2.6v-4.4h1.3V12h1.3c0,0,0.3-0.1,0.3-0.4c0-0.3-0.1-0.5-0.1-0.5c0.6-0.2,1.1-0.6,1.1-0.6
				C20.4,11.7,19.6,12.6,19.6,12.6z M19.2,4.5v1.3c0,0-2,0-2.1,0c-0.2,0-0.4,0.1-0.4,0.5c0,0.4,0.3,0.5,0.5,0.5s0.7,0,0.9,0
				c0.3,0,1.6,0.4,1.6,1.8s-1.2,1.7-1.4,1.8c-0.2,0-2.4,0-2.4,0V9.1h2c0,0,0.6,0,0.6-0.5c0-0.5-0.5-0.5-0.6-0.5s-0.5,0-0.8,0
				c-0.2,0-0.6-0.1-1-0.5c-0.2-0.2-0.5-0.7-0.5-1.1c0-0.7,0.2-1.1,0.5-1.5c0.3-0.3,0.8-0.5,1-0.5H19.2z M7.8,14.1
				c-0.1-0.4,0-2.7,0.8-4.5c-0.1,0.8-0.2,2,0,3.5c0.3,1.9,0.9,3.2,1.2,3.8c0,0,0.1,0.1,0.1,0.1c-0.3-0.3-0.5-0.6-0.7-0.8
				C8.8,15.6,7.9,14.6,7.8,14.1z M12.2,22.2c0,0-2.7-2.2-2.7-3c0,0,1.8,1.9,4.3,2.1L12.2,22.2z M25.3,22.2L25.3,22.2L25.3,22.2
				l-1.5-0.8c1.7-0.2,3.1-1.2,3.6-1.7c-0.4,0-1.3,0.1-2.4,0.1c0,0-0.1,0.1-0.1,0.1c-1.1,1-2.7,0.9-2.7,0.9c1-0.4,1.6-0.8,1.9-1
				c-0.9,0-1.9,0-2.9-0.1c-1.6-0.2-3.2-0.7-4.4-1.2c-1.2-0.5-2.1-1.3-2.9-2c-1.1-1-1.9-2.2-2.6-3.3c-0.2,2,0.1,3.7,0.4,5
				c1.1,0.9,2.8,2.1,4.5,2.5c0,0-2.4-0.1-3.8-1.4c-0.1-0.1-0.3-0.3-0.4-0.4c0.4,1.3,0.9,2.1,0.9,2.1s-0.8-0.7-1.4-2.6
				c-0.2-0.1-0.3-0.3-0.5-0.4c-0.3-1.3-0.4-3-0.2-5.2C9.9,11.2,9.3,9.8,9,8.9c0.1-0.1,0.2-0.3,0.3-0.4c0,0,0-0.1,0-0.1
				c0,0,0,0,0,0.1c0,0,0,0,0.1-0.1c0,0,0,0,0,0.1c0.2,0.4,0.8,1.8,1.8,3.4c0.8-6.7,5.4-9.2,5.4-9.2s-4.2,2.7-5.1,9.6
				c0.6,0.9,1.3,1.8,2.1,2.8c0.9,1.1,2.2,1.9,3.6,2.7c3,1.7,7.7,1.6,7.7,1.6s2-1.3,3.3-3.6c1.4-2.3,1.4-4.1,1.4-4.1s0.9,3.9-1.7,7.8
				C27.3,20.7,25.3,22.2,25.3,22.2z M14.2,8.6L14.2,8.6L14,8.3l0.3,0.1c0.1,0,0.2,0,0.3,0l0.3-0.2l-0.1,0.3c0,0.1,0,0.2,0,0.3
				l0.2,0.2L14.6,9c-0.1,0-0.2,0-0.3,0l-0.3,0.2l0.1-0.3C14.2,8.8,14.2,8.7,14.2,8.6z"/>
			<polygon class="st1" points="19.6,12.6 19.6,12.6 19.6,12.6 			"/>
			<path class="st1" d="M18.3,13.3h-1.2v1h1.2c0,0,0.4-0.2,0.4-0.5C18.7,13.4,18.3,13.3,18.3,13.3z"/>
		</g>
	</g>
</g>
</svg>
