<?xml version="1.0" encoding="UTF-8"?><svg id="_圖層_1" xmlns="http://www.w3.org/2000/svg" viewBox="0 0 48 48"><defs><style>.cls-1{fill:#fff;fill-rule:evenodd;}</style></defs><path class="cls-1" d="m47.97,25.22c0,.14-.02.27-.03.41-.02.27-.03.53-.06.8-.39,3.85-1.72,7.6-3.87,10.82-.98,1.47-2.11,2.83-3.38,4.05-.27.27-.56.52-.84.77-.86.76-1.78,1.45-2.74,2.07-.39.25-.78.49-1.18.72-.6.34-1.21.66-1.84.95-.35.16-.7.31-1.06.46-2.19.88-4.5,1.43-6.85,1.64-.39.03-.78.06-1.17.07h0c7.27-1.7,12.38-7.24,13.74-8.86.42.26.72.45.72.45,0,0,.63-1.79.58-4.07-1.09.82-2.32,1.56-3.67,2.16.05.03.38.23.81.49-1.72,2.14-8.48,8.98-17.13,8.97-1.05,0-2.05-.13-3-.33,8.05-.38,14.52-6.93,18.31-11.71.82.52,1.43.91,1.43.91,0,0,.99-3.14.33-7.77-1.06,1.27-3.56,2.81-5.93,4.24.08.04.74.46,1.58.98-3.58,5.06-10.64,11.49-18.13,11.48-.37,0-1.29,0-2.52-.11-.67-.38-1.32-.79-1.94-1.23h0c.45.04.92.06,1.4.06,7.92-.02,13.6-6.06,15.32-8.13.61.4,1.07.71,1.07.71,0,0,.6-2.41.32-5.14-1.43.97-2.51,1.83-4.23,2.59.07.04.6.38,1.24.8-1.61,2.01-6.72,7.52-14.26,7.52-1.14,0-2.3-.17-3.44-.52-.29-.27-.57-.55-.84-.83,0,0-.01-.01-.02-.02-.27-.28-.53-.56-.78-.85-1.08-1.23-2.02-2.58-2.83-4-.16-.28-.31-.57-.46-.85-.04-.07-.08-.14-.11-.22-.14-.28-.27-.56-.4-.84C.89,31.15.2,28.22.03,25.26c-.02-.42-.03-.84-.03-1.26C0,10.75,10.75,0,24,0s24,10.75,24,24c0,.41-.01.82-.03,1.22Zm-17.34,2.67l1.41-2.58-3.21,1.02-.85,1.57h2.64Zm-22.38,12.19c1.2.66,3.2.53,4.58.12-2.33-.02-5.25-.8-8-4.27.75,1.42,1.58,2.93,3.42,4.15Zm-1.9-19.99c1.17-4.98,3.06-8.23,7.36-11.54-3.95,2.67-7.29,7.03-8.04,11.81-.3,1.93-.59,3.95-.42,6.01-1.12-2.01-1.92-4.49-2.34-7.63.17,3.37.99,6.25,2.46,8.62.31,1.92,1.07,3.89,2.64,5.86-.81-1.33-1.35-2.89-1.69-4.5,2.46,3.09,6.22,5.12,11.24,5.97-4.72-1.39-8.73-3.17-11.4-6.89-.44-2.8-.29-5.66.19-7.71Zm-.89,13.31c-1.2-.99-3.03-5.06-3.44-9.62-.4,4.44.61,6.59,1.11,7.95.5,1.37,5.96,6.63,14.56,5.66-7,.21-10.94-2.26-12.23-4ZM20.81,7.77c.22-.21.48-.32.79-.32h4.24v-2.64h-4.24c-1.05,0-1.94.37-2.68,1.1-.74.73-1.11,1.61-1.11,2.64s.37,1.91,1.11,2.64c.74.73,1.63,1.1,2.68,1.1h1.34c.31,0,.57.11.79.32.22.21.33.47.33.78s-.11.56-.33.78c-.22.21-.48.32-.79.32h-4.24v2.64h4.24c1.05,0,1.94-.37,2.68-1.1.74-.73,1.11-1.61,1.11-2.64s-.37-1.91-1.11-2.64c-.74-.73-1.63-1.1-2.68-1.1h-1.34c-.31,0-.57-.11-.79-.32-.22-.21-.33-.47-.33-.78s.11-.56.33-.78Zm5.95,9.61c-.52.47-1.29,1.02-2.29,1.29.14.18.33.6.33.84,0,.3-.11.55-.32.76-.21.21-.47.32-.77.32h-2.41s0-1.93,0-1.93h-2.57s-.05,0-.05,0l.02,9.27h5.01c1.03-.01,1.9-.37,2.63-1.09.72-.72,1.09-1.58,1.08-2.6,0-.91-.3-1.7-.88-2.36.59-.67.89-1.47.89-2.38,0-.72-.3-1.56-.67-2.13Zm1.12-.77h2.94l1.57-2.87-3.58,1.13-.94,1.74Zm6.5-11.7l-4.57,8.16,5.27-1.66,2.86,5.2h2.94l-6.5-11.7Zm.77,9.69l-3.15,5.64-2.33,4.16,6.83-2.45,3.28,5.99,2.92.03-7.56-13.36Zm-11.48,10.65h-2.39s0-2.15,0-2.15h2.39c.3,0,.56.1.77.31.21.21.32.46.32.76,0,.3-.11.55-.32.76-.21.21-.47.32-.77.32Z"/></svg>