<?xml version="1.0" encoding="utf-8"?>
<!-- Generator: Adobe Illustrator 27.8.1, SVG Export Plug-In . SVG Version: 6.00 Build 0)  -->
<svg version="1.1" id="_圖層_1" xmlns="http://www.w3.org/2000/svg" xmlns:xlink="http://www.w3.org/1999/xlink" x="0px" y="0px"
	 width="48px" height="48px" viewBox="0 0 48 48" style="enable-background:new 0 0 48 48;" xml:space="preserve">
<style type="text/css">
	.st0{fill:none;}
	.st1{fill:#FFFFFF;}
</style>
<rect class="st0" width="48" height="48"/>
<path class="st1" d="M9.8,22L9.8,22c-1.7-3.1-3-5.9-3.3-7.6c-0.3,0.9-1.1,3.9-0.4,8.4c0.5,3.4,1.6,5.6,2.1,6.7
	c0.2,0.4,0.5,0.8,0.8,1.1c0.3,0.3,0.7,0.7,1.2,1.1C9.7,29.2,9.5,26.1,9.8,22L9.8,22z"/>
<path class="st1" d="M23.2,22h-2.3v2h2.3c0,0,0.8-0.3,0.8-1C24,22.2,23.2,22,23.2,22L23.2,22z"/>
<path class="st1" d="M24.5,40.4C13.8,40,9.6,46.8,9.6,46.8s5.2-3.2,14.9-3.2c8.5,0,13.9,3.6,13.9,3.6S35.2,40.7,24.5,40.4z"/>
<path class="st1" d="M24,0.8c-11.9,0-21.3,9.5-21.3,21.3c0,7.9,3.8,13.6,8.8,17.5c2.4-1.7,7.6-4.4,13.1-4.2c4.8,0.2,9.8,2.6,12,4
	c5.6-4.4,8.8-9.5,8.8-17.3C45.3,10.4,35.8,0.8,24,0.8z M39.2,17.5L38.9,17l0.5,0.3c0.2,0.1,0.4,0.1,0.5,0l0.5-0.3l-0.3,0.5
	c-0.1,0.2-0.1,0.4,0,0.5l0.3,0.5L40,18.2c-0.2-0.1-0.3-0.1-0.5,0L39,18.5l0.3-0.5C39.3,17.9,39.3,17.7,39.2,17.5L39.2,17.5z
	 M28.1,22.9l4.5-8.2L39,25.9h-2.4l-2.8-5L28.1,22.9L28.1,22.9z M33.1,23.3l-0.5,0.1c-0.2,0-0.3,0.2-0.3,0.3l-0.2,0.5L32,23.8
	c0-0.1-0.1-0.3-0.3-0.3l-0.5-0.1l0.5-0.1c0.2,0,0.3-0.1,0.3-0.3l0.2-0.5l0.2,0.5c0,0.2,0.2,0.3,0.3,0.3H33.1L33.1,23.3z M28.9,28
	l-0.7-1.1c-0.2-0.3-0.6-0.5-1-0.5l-1.4,0.1l1-0.7c0.3-0.2,0.5-0.6,0.5-1l-0.1-1.4l0.9,1.1c0.2,0.3,0.6,0.5,1.1,0.5l1.1-0.1l-1,0.8
	c-0.3,0.2-0.5,0.6-0.5,1L28.9,28L28.9,28z M28.9,6.1c0.2,0,0.3-0.2,0.4-0.3l0.2-0.6l0.2,0.6c0.1,0.2,0.2,0.3,0.4,0.4l0.5,0.1L30,6.4
	c-0.2,0.1-0.3,0.2-0.4,0.3l-0.2,0.5l-0.1-0.6c0-0.2-0.2-0.3-0.3-0.3l-0.6-0.2L28.9,6.1L28.9,6.1z M32,6.6l5.5,9.8H35L32.5,12
	l-4.4,1.4L32,6.6L32,6.6z M27.1,15.9c0.3-0.2,0.4-0.5,0.4-0.8L27.4,14l0.7,0.9c0.2,0.3,0.5,0.4,0.9,0.4l0.9-0.1l-0.8,0.6
	c-0.3,0.2-0.4,0.5-0.4,0.8v1l-0.6-0.9c-0.2-0.2-0.5-0.4-0.8-0.4l-1.1,0.1L27.1,15.9L27.1,15.9z M25.4,20.8c0,0,0.7,0.5,0.7,2
	c0,2.8-2.7,3.1-2.7,3.1h-4.6v-7.8H21v1.6h2.3c0,0,0.5-0.2,0.6-0.7s-0.2-0.9-0.2-0.9c1.1-0.3,1.9-1.1,1.9-1.1
	C27,19.2,25.4,20.8,25.4,20.8L25.4,20.8z M24.7,6.5v2.3c0,0-3.5,0-3.7,0S20.3,9,20.3,9.7c0,0.6,0.6,0.9,0.8,0.9s1.1,0,1.6,0
	s2.7,0.7,2.7,3.1s-2.2,3-2.5,3.1s-4.3,0-4.3,0v-2.3h3.5c0,0,1,0.1,1-0.9c0-0.9-0.8-0.9-1-0.9s-0.9,0-1.4,0c-0.4,0-1.1-0.2-1.9-0.9
	c-0.3-0.3-0.9-1.1-0.9-1.9c0-1.3,0.3-2,1-2.6c0.6-0.6,1.4-0.9,1.7-0.9L24.7,6.5L24.7,6.5z M12.5,37.7c0,0-4.8-3.9-4.7-5.3
	c0,0,3.2,3.4,7.5,3.8C15.2,36.2,12.5,37.7,12.5,37.7z M35.5,37.7L35.5,37.7L35.5,37.7l-2.6-1.4c3-0.3,5.4-2.2,6.4-3
	c-0.8,0.1-2.3,0.2-4.2,0.2c-0.1,0.1-0.2,0.1-0.2,0.2c-2,1.7-4.8,1.7-4.8,1.7c1.8-0.7,2.9-1.4,3.4-1.8c-1.6,0-3.3-0.1-5.1-0.3
	c-2.8-0.3-5.7-1.2-7.8-2.1s-3.7-2.2-5.2-3.6c-1.9-1.8-3.3-3.9-4.5-5.9c-0.3,3.5,0.1,6.5,0.7,8.9c2,1.7,5,3.8,7.9,4.5
	c0,0-4.2-0.3-6.8-2.5c-0.3-0.2-0.5-0.5-0.8-0.7c0.7,2.3,1.5,3.7,1.5,3.7s-1.5-1.2-2.4-4.5c-1.8-1.6-3.3-3-3.8-3.8
	c-0.8-1.1-2.3-2.9-2.5-3.8s0.1-6.7,2.6-10c0-0.1,0-0.1,0-0.1s0,0,0.1,0.1l0.1-0.1c0,0,0,0.1-0.1,0.2c0.3,0.7,1.4,3.1,3.2,6.1
	C12,7.7,20,3.4,20,3.4s-7.4,4.7-9,17c1,1.6,2.2,3.3,3.6,4.9c1.6,1.9,3.9,3.4,6.3,4.7c5.3,3,13.6,2.9,13.6,2.9s3.5-2.3,5.9-6.3
	s2.5-7.3,2.5-7.3s1.7,7-3.1,13.9C39.2,35,35.6,37.7,35.5,37.7L35.5,37.7z M15.9,13.7l-0.3-0.5l0.5,0.2c0.2,0.1,0.3,0.1,0.5,0
	l0.5-0.3l-0.2,0.6c-0.1,0.2,0,0.4,0.1,0.5l0.3,0.4l-0.5-0.2c-0.2-0.1-0.3-0.1-0.5,0l-0.5,0.3l0.2-0.5C16,14,16,13.8,15.9,13.7
	L15.9,13.7z"/>
</svg>
