<?xml version="1.0" encoding="UTF-8"?><svg id="_圖層_1" xmlns="http://www.w3.org/2000/svg" viewBox="0 0 48 48"><defs><style>.cls-1{fill:none;}.cls-1,.cls-2{stroke-width:0px;}.cls-2{fill:#1a84f2;}</style></defs><rect class="cls-1" width="48" height="48"/><path class="cls-2" d="m9.8,22h0c-1.7-3.1-3-5.9-3.3-7.6-.3.9-1.1,3.9-.4,8.4.5,3.4,1.6,5.6,2.1,6.7.2.4.5.8.8,1.1.3.3.7.7,1.2,1.1-.5-2.5-.7-5.6-.4-9.7h0Z"/><path class="cls-2" d="m23.24,22.05h-2.3v2h2.3s.8-.3.8-1c0-.8-.8-1-.8-1h0Z"/><path class="cls-2" d="m24.5,40.4c-10.7-.4-14.9,6.4-14.9,6.4,0,0,5.2-3.2,14.9-3.2,8.5,0,13.9,3.6,13.9,3.6,0,0-3.2-6.5-13.9-6.8Z"/><path class="cls-2" d="m24,.8C12.1.8,2.7,10.3,2.7,22.1c0,7.9,3.8,13.6,8.8,17.5,2.4-1.7,7.6-4.4,13.1-4.2,4.8.2,9.8,2.6,12,4,5.6-4.4,8.8-9.5,8.8-17.3-.1-11.7-9.6-21.3-21.4-21.3Zm15.2,16.7l-.3-.5.5.3c.2.1.4.1.5,0l.5-.3-.3.5c-.1.2-.1.4,0,.5l.3.5-.4-.3c-.2-.1-.3-.1-.5,0l-.5.3.3-.5c0-.1,0-.3-.1-.5h0Zm-11.1,5.4l4.5-8.2,6.4,11.2h-2.4l-2.8-5-5.7,2h0Zm5,.4l-.5.1c-.2,0-.3.2-.3.3l-.2.5-.1-.4c0-.1-.1-.3-.3-.3l-.5-.1.5-.1c.2,0,.3-.1.3-.3l.2-.5.2.5c0,.2.2.3.3.3h.4Zm-4.2,4.7l-.7-1.1c-.2-.3-.6-.5-1-.5l-1.4.1,1-.7c.3-.2.5-.6.5-1l-.1-1.4.9,1.1c.2.3.6.5,1.1.5l1.1-.1-1,.8c-.3.2-.5.6-.5,1l.1,1.3h0Zm0-21.9c.2,0,.3-.2.4-.3l.2-.6.2.6c.1.2.2.3.4.4l.5.1-.6.1c-.2.1-.3.2-.4.3l-.2.5-.1-.6c0-.2-.2-.3-.3-.3l-.6-.2h.5Zm3.1.5l5.5,9.8h-2.5l-2.5-4.4-4.4,1.4,3.9-6.8h0Zm-4.9,9.3c.3-.2.4-.5.4-.8l-.1-1.1.7.9c.2.3.5.4.9.4l.9-.1-.8.6c-.3.2-.4.5-.4.8v1l-.6-.9c-.2-.2-.5-.4-.8-.4l-1.1.1.9-.5h0Zm-1.7,4.9s.7.5.7,2c0,2.8-2.7,3.1-2.7,3.1h-4.6v-7.8h2.2v1.6h2.3s.5-.2.6-.7-.2-.9-.2-.9c1.1-.3,1.9-1.1,1.9-1.1,1.4,2.2-.2,3.8-.2,3.8h0Zm-.7-14.3v2.3h-3.7c-.2,0-.7.2-.7.9,0,.6.6.9.8.9h1.6c.5,0,2.7.7,2.7,3.1s-2.2,3-2.5,3.1-4.3,0-4.3,0v-2.3h3.5s1,.1,1-.9c0-.9-.8-.9-1-.9h-1.4c-.4,0-1.1-.2-1.9-.9-.3-.3-.9-1.1-.9-1.9,0-1.3.3-2,1-2.6.6-.6,1.4-.9,1.7-.9l4.1.1h0Zm-12.2,31.2s-4.8-3.9-4.7-5.3c0,0,3.2,3.4,7.5,3.8-.1,0-2.8,1.5-2.8,1.5Zm23,0h0l-2.6-1.4c3-.3,5.4-2.2,6.4-3-.8.1-2.3.2-4.2.2-.1.1-.2.1-.2.2-2,1.7-4.8,1.7-4.8,1.7,1.8-.7,2.9-1.4,3.4-1.8-1.6,0-3.3-.1-5.1-.3-2.8-.3-5.7-1.2-7.8-2.1-2.1-.9-3.7-2.2-5.2-3.6-1.9-1.8-3.3-3.9-4.5-5.9-.3,3.5.1,6.5.7,8.9,2,1.7,5,3.8,7.9,4.5,0,0-4.2-.3-6.8-2.5-.3-.2-.5-.5-.8-.7.7,2.3,1.5,3.7,1.5,3.7,0,0-1.5-1.2-2.4-4.5-1.8-1.6-3.3-3-3.8-3.8-.8-1.1-2.3-2.9-2.5-3.8s.1-6.7,2.6-10v-.1l.1.1.1-.1s0,.1-.1.2c.3.7,1.4,3.1,3.2,6.1C12,7.7,20,3.4,20,3.4c0,0-7.4,4.7-9,17,1,1.6,2.2,3.3,3.6,4.9,1.6,1.9,3.9,3.4,6.3,4.7,5.3,3,13.6,2.9,13.6,2.9,0,0,3.5-2.3,5.9-6.3s2.5-7.3,2.5-7.3c0,0,1.7,7-3.1,13.9-.6,1.8-4.2,4.5-4.3,4.5h0ZM15.9,13.7l-.3-.5.5.2c.2.1.3.1.5,0l.5-.3-.2.6c-.1.2,0,.4.1.5l.3.4-.5-.2c-.2-.1-.3-.1-.5,0l-.5.3.2-.5c0-.2,0-.4-.1-.5h0Z"/></svg>