<svg width="20" height="20" viewBox="0 0 20 20" fill="none" xmlns="http://www.w3.org/2000/svg">
<circle cx="10" cy="10" r="10" fill="#1A84F2"/>
<path d="M8.28571 14.45C8.28571 14.725 8.51429 15 8.85714 15H11.1429C11.4857 15 11.7143 14.725 11.7143 14.45V13.9H8.28571V14.45ZM10 4C7.77143 4 6 5.705 6 7.85C6 9.17 6.68571 10.325 7.71429 10.985V12.25C7.71429 12.525 7.94286 12.8 8.28571 12.8H11.7143C12.0571 12.8 12.2857 12.525 12.2857 12.25V10.985C13.3143 10.27 14 9.115 14 7.85C14 5.705 12.2286 4 10 4Z" fill="white"/>
</svg>
